# xmcd CD database file
#
# Track frame offsets:
#	150
#	14618
#	27788
#	40613
#	54320
#	67906
#	80680
#	93564
#	106443
#	120148
#	134238
#	147314
#	161246
#	173260
#	186254
#	199390
#	213932
#	227205
#
# Disc length: 3214 seconds
#
# Revision: 1
# Processed by: cddbd v1.5.2PL0 Copyright (c) Steve Scherf et al.
# Submitted via: CDex 1.51
#
DISCID=f90c8c12
DTITLE=Skip James - The Complete Early Recordings Of Skip James - 1930
DYEAR=1994
DGENRE=Blues
TTITLE0=Cypress Grove Blues
TTITLE1=If You Haven't Any Hay Get On Down The Road
TTITLE2=Hard Time Killin' Floor Blues
TTITLE3=Special Rider Blues
TTITLE4=Devil Got My Woman
TTITLE5=I'm So Glad
TTITLE6=Cherry Ball Blues
TTITLE7=22-23 Blues
TTITLE8=Jesus Is A Mighty Good Leader
TTITLE9=Hard Luck Child
TTITLE10=Little Cow And Calf Is Gonna Die Blues
TTITLE11=Illinois Blues
TTITLE12=Drunken Spree
TTITLE13=Four o' Clock Blues
TTITLE14=How Long Buck
TTITLE15=Yola My Blues Away
TTITLE16=Be Ready When He Comes
TTITLE17=What Am I To Do Blues
EXTD=YEAR: 1994
EXTT0=
EXTT1=
EXTT2=
EXTT3=
EXTT4=
EXTT5=
EXTT6=
EXTT7=
EXTT8=
EXTT9=
EXTT10=
EXTT11=
EXTT12=
EXTT13=
EXTT14=
EXTT15=
EXTT16=
EXTT17=
PLAYORDER=
